<?xml version="1.0" encoding="utf-8"?>
<!-- Generator: Adobe Illustrator 23.0.6, SVG Export Plug-In . SVG Version: 6.00 Build 0)  -->
<svg version="1.1" xmlns="http://www.w3.org/2000/svg" xmlns:xlink="http://www.w3.org/1999/xlink" x="0px" y="0px"
	 viewBox="0 0 403 301" style="enable-background:new 0 0 403 301;" xml:space="preserve">
<style type="text/css">
	.st0{display:none;}
	.st1{display:inline;fill:url(#SVGID_1_);}
	.st2{display:inline;}
	.st3{fill:#FFFFFF;}
	.st4{display:inline;fill:none;stroke:#FFFFFF;stroke-width:0.5;stroke-miterlimit:10;}
	.st5{display:inline;fill:none;stroke:#FFFFFF;stroke-width:0.5229;stroke-miterlimit:10;}
	.st6{display:inline;fill:none;stroke:#FFFFFF;stroke-width:0.5273;stroke-miterlimit:10;}
	.st7{fill:none;stroke:#FFFFFF;stroke-miterlimit:10;}
	.st8{fill:none;stroke:#FFFFFF;stroke-miterlimit:10;stroke-dasharray:1.9843,2.9764;}
	.st9{fill:none;stroke:#FFFFFF;stroke-miterlimit:10;stroke-dasharray:1.9952,2.9927;}
	.st10{stroke:#FFFFFF;stroke-width:2.4554;stroke-miterlimit:10;}
	.st11{fill:none;stroke:#FFFFFF;stroke-miterlimit:10;stroke-dasharray:2,3;}
	.st12{font-family:'PTSerif-Regular';}
	.st13{font-size:28px;}
	.st14{display:inline;fill:none;stroke:#FFFFFF;stroke-linecap:round;stroke-linejoin:round;stroke-miterlimit:10;}
	.st15{fill:none;stroke:#FFFFFF;stroke-linecap:round;stroke-miterlimit:10;}
	
		.st16{fill:none;stroke:#FFFFFF;stroke-linecap:round;stroke-miterlimit:10;stroke-dasharray:10.0481,13.0626,20.0963,30.1444,7.0337,10.0481;}
	
		.st17{fill:none;stroke:#FFFFFF;stroke-linecap:round;stroke-miterlimit:10;stroke-dasharray:26.3673,11.4258,17.5782,17.5782,6.1524,26.3673;}
	.st18{fill:none;stroke:#FFFFFF;stroke-linecap:round;stroke-miterlimit:10;stroke-dasharray:36.738,3.6738;}
	.st19{fill:none;stroke:#FFFFFF;stroke-linecap:round;stroke-miterlimit:10;stroke-dasharray:9.1845,3.6738,36.738,3.6738;}
	.st20{fill:none;stroke:#FFFFFF;stroke-linecap:round;stroke-miterlimit:10;stroke-dasharray:21.0938,14.0626,3.5156,21.0938;}
	
		.st21{fill:none;stroke:#FFFFFF;stroke-linecap:round;stroke-miterlimit:10;stroke-dasharray:14.0626,3.5156,21.0938,14.0626,3.5156,21.0938;}
	.st22{display:inline;fill:#FFFFFF;}
	.st23{display:inline;fill:none;stroke:#FFFFFF;stroke-miterlimit:10;stroke-dasharray:2,3;}
	.st24{fill:none;stroke:#FFFFFF;stroke-width:3;stroke-linecap:round;stroke-linejoin:round;stroke-miterlimit:10;}
	.st25{clip-path:url(#SVGID_3_);}
	.st26{clip-path:url(#SVGID_5_);}
	.st27{clip-path:url(#SVGID_7_);}
	
		.st28{clip-path:url(#SVGID_9_);fill:none;stroke:#58595B;stroke-width:0.9;stroke-linecap:round;stroke-linejoin:round;stroke-dasharray:0,3.007;}
	.st29{clip-path:url(#SVGID_11_);}
	
		.st30{clip-path:url(#SVGID_13_);fill:none;stroke:#58595B;stroke-width:0.9;stroke-linecap:round;stroke-linejoin:round;stroke-dasharray:0,3.007;}
	.st31{clip-path:url(#SVGID_15_);}
	
		.st32{clip-path:url(#SVGID_17_);fill:none;stroke:#58595B;stroke-width:0.9;stroke-linecap:round;stroke-linejoin:round;stroke-dasharray:0,3.007;}
	.st33{clip-path:url(#SVGID_19_);}
	
		.st34{clip-path:url(#SVGID_21_);fill:none;stroke:#58595B;stroke-width:0.9;stroke-linecap:round;stroke-linejoin:round;stroke-dasharray:0,3.007;}
	.st35{clip-path:url(#SVGID_23_);}
	
		.st36{clip-path:url(#SVGID_25_);fill:none;stroke:#58595B;stroke-width:0.9;stroke-linecap:round;stroke-linejoin:round;stroke-dasharray:0,3.007;}
	.st37{clip-path:url(#SVGID_27_);}
	
		.st38{clip-path:url(#SVGID_29_);fill:none;stroke:#58595B;stroke-width:0.9;stroke-linecap:round;stroke-linejoin:round;stroke-dasharray:0,3.007;}
	.st39{clip-path:url(#SVGID_31_);}
	
		.st40{clip-path:url(#SVGID_33_);fill:none;stroke:#58595B;stroke-width:0.9;stroke-linecap:round;stroke-linejoin:round;stroke-dasharray:0,3.007;}
	.st41{clip-path:url(#SVGID_35_);}
	
		.st42{clip-path:url(#SVGID_37_);fill:none;stroke:#58595B;stroke-width:0.9;stroke-linecap:round;stroke-linejoin:round;stroke-dasharray:0,3.007;}
	.st43{clip-path:url(#SVGID_39_);}
	
		.st44{clip-path:url(#SVGID_41_);fill:none;stroke:#58595B;stroke-width:0.9;stroke-linecap:round;stroke-linejoin:round;stroke-dasharray:0,3.007;}
	.st45{clip-path:url(#SVGID_43_);}
	
		.st46{clip-path:url(#SVGID_45_);fill:none;stroke:#58595B;stroke-width:0.9;stroke-linecap:round;stroke-linejoin:round;stroke-dasharray:0,3.007;}
	.st47{display:inline;fill:#58595B;}
	.st48{display:inline;fill:none;stroke:#58595B;stroke-width:0.6;stroke-linecap:round;stroke-linejoin:round;}
	.st49{display:inline;fill:none;stroke:#F1F2F2;stroke-width:0.6;stroke-linecap:round;stroke-linejoin:round;}
	.st50{fill:none;stroke:#9B9C9D;stroke-linecap:round;stroke-linejoin:round;}
	.st51{fill:none;stroke:#9B9C9D;stroke-width:0.5;stroke-miterlimit:10;}
	.st52{fill:#9B9C9D;}
	.st53{fill:none;stroke:#FCFCFC;stroke-width:8;stroke-miterlimit:10;}
	.st54{opacity:0.34;fill:#FCFCFC;}
	.st55{fill:#FCFCFC;}
</style>
<g id="Layer_1" class="st0">
	<linearGradient id="SVGID_1_" gradientUnits="userSpaceOnUse" x1="276.5" y1="871.5" x2="276.5" y2="109">
		<stop  offset="0" style="stop-color:#000000;stop-opacity:0"/>
		<stop  offset="0.6172" style="stop-color:#000000"/>
	</linearGradient>
	<rect x="-333.5" y="109" class="st1" width="1220" height="762.5"/>
	<circle class="st3" cx="256" cy="234" r="13"/>
	<line class="st11" x1="256" y1="295" x2="256" y2="337"/>
	<text transform="matrix(1 0 0 1 63.4278 199.2578)" class="st3 st12 st13">This is the story of Nature&apos;s papers</text>
	<text transform="matrix(1 0 0 1 190.0574 283.8276)" class="st3 st12 st13">One Paper</text>
	<g>
		<g class="st2">
			<path class="st3" d="M216.73,256c31.58,0,57.27,25.69,57.27,57.27v225.25c0,0.17-0.14,0.18-0.19,0.18c-0.02,0-0.05,0-0.11-0.06
				c-15.52-14.25-57.53-17.17-115.83-17.17c-12.62,0-25.79,0.14-38.54,0.27c-12.01,0.12-24.4,0.25-36.34,0.27V256H216.73
				 M216.73,253H80v272c0.29,0,0.57,0,0.86,0c25.2,0,51.81-0.53,77.01-0.53c52.23,0,98.46,2.29,113.8,16.38
				c0.64,0.58,1.39,0.85,2.14,0.85c1.63,0,3.19-1.27,3.19-3.18V313.27C277,279.98,250.02,253,216.73,253L216.73,253z"/>
		</g>
		<g class="st2">
			<path class="st3" d="M470,256v266c-11.93-0.01-24.33-0.14-36.34-0.27c-12.74-0.13-25.92-0.27-38.54-0.27
				c-58.64,0-100.85,2.97-116.13,17.45V313.27c0-31.58,25.69-57.27,57.27-57.27H470 M473,253H336.27
				c-33.28,0-60.27,26.98-60.27,60.27v226.05c0,1.71,1.38,2.82,2.83,2.82c0.71,0,1.43-0.26,2.02-0.84
				c14.86-14.49,61.5-16.83,114.27-16.83c25.2,0,51.81,0.53,77.01,0.53c0.29,0,0.57,0,0.86,0V253L473,253z"/>
		</g>
		<path class="st14" d="M454,277.5H350.27c-20.08,0-37.86,9.82-48.82,24.92"/>
		<path class="st14" d="M255.05,348.42c-10.95-15.1-28.74-24.92-48.82-24.92v-46c20.08,0,37.86,9.82,48.82,24.92V348.42z"/>
		<rect x="109.5" y="277.5" class="st14" width="77" height="50"/>
	</g>
</g>
<g id="Layer_2" class="st0">
	<g class="st2">
		<path class="st50" d="M383.57,56.5c0,0,20.36,20.14-38.36,39.43c0,0-52.54,13.67-35.71,49.57c15,32,74.07,39.57,74.07,39.57"/>
		<path class="st50" d="M268.5,202c0,0,42.71-2.64,38-66.5"/>
		<path class="st50" d="M349.74,94.39c-4.29,0.39-36.17,49.98,19.76,61.11c49.5,9.86,58.04-21.01,77.71-29.14"/>
		<path class="st50" d="M277.5,69.57c0,0-9,15.64,24,14.14c12.06-0.55,31.96,17.97,62.59,4.81"/>
		<path class="st50" d="M273.64,91.43c0,0,2.14,4.93,27.86-7.71"/>
		<circle class="st3" cx="272.25" cy="91.25" r="2.75"/>
		<circle class="st3" cx="383.5" cy="185" r="4"/>
		<circle class="st3" cx="269" cy="202" r="4"/>
		<circle class="st3" cx="383.5" cy="56.5" r="2.5"/>
		<path class="st51" d="M402.5,168.5c-38,8-124-28-77.2-64.04"/>
		<path class="st51" d="M258.5,166.5c-3,13,38,30,47.5-8.07"/>
		<path class="st51" d="M313,71c0.02,0.06-1.5,15.5,14.5,20.5"/>
		<path class="st50" d="M425,113c0,0-5.97,45.54-32.98,44.27"/>
		<circle class="st3" cx="278.25" cy="68.25" r="2.75"/>
		<circle class="st52" cx="402.39" cy="168.33" r="1.67"/>
		<circle class="st52" cx="258.39" cy="166.33" r="1.67"/>
		<circle class="st52" cx="313.39" cy="71.33" r="1.67"/>
	</g>
</g>
<g id="Layer_4">
	<path class="st53" d="M236.02,145h-64.03c-9.38,0-16.98-7.6-16.98-16.98V63.98C155,54.6,162.6,47,171.98,47h64.03
		C245.4,47,253,54.6,253,63.98v64.03C253,137.4,245.4,145,236.02,145z"/>
	<path class="st53" d="M236.02,262h-64.03c-9.38,0-16.98-7.6-16.98-16.98v-64.03c0-9.38,7.6-16.98,16.98-16.98h64.03
		c9.38,0,16.98,7.6,16.98,16.98v64.03C253,254.4,245.4,262,236.02,262z"/>
	<path class="st53" d="M350.02,262h-64.03c-9.38,0-16.98-7.6-16.98-16.98v-64.03c0-9.38,7.6-16.98,16.98-16.98h64.03
		c9.38,0,16.98,7.6,16.98,16.98v64.03C367,254.4,359.4,262,350.02,262z"/>
	<path class="st53" d="M122.02,262H57.98C48.6,262,41,254.4,41,245.02v-64.03C41,171.6,48.6,164,57.98,164h64.03
		c9.38,0,16.98,7.6,16.98,16.98v64.03C139,254.4,131.4,262,122.02,262z"/>
	<polygon class="st55" points="190.16,103 204.08,89.08 218,103 	"/>
	<polygon class="st55" points="218.5,214 204.08,228.42 189.66,214 	"/>
	<polygon class="st55" points="318,205.58 332.42,220 318,234.42 	"/>
	<polygon class="st55" points="92,234.42 77.58,220 92,205.58 	"/>
</g>
</svg>
