<?xml version="1.0" encoding="utf-8"?>
<!-- Generator: Adobe Illustrator 23.0.6, SVG Export Plug-In . SVG Version: 6.00 Build 0)  -->
<svg version="1.1" xmlns="http://www.w3.org/2000/svg" xmlns:xlink="http://www.w3.org/1999/xlink" x="0px" y="0px"
	 viewBox="0 0 285.88 350.02" style="enable-background:new 0 0 285.88 350.02;" xml:space="preserve">
<style type="text/css">
	.st0{display:none;}
	.st1{fill:url(#SVGID_1_);}
	.st2{display:inline;}
	.st3{fill:#FFFFFF;}
	.st4{fill:none;stroke:#FFFFFF;stroke-width:7;stroke-linecap:round;stroke-linejoin:round;stroke-miterlimit:10;}
	.st5{display:inline;fill:none;stroke:#FFFFFF;stroke-width:0.5;stroke-miterlimit:10;}
	.st6{display:inline;fill:none;stroke:#FFFFFF;stroke-width:0.5229;stroke-miterlimit:10;}
	.st7{display:inline;fill:none;stroke:#FFFFFF;stroke-width:0.5273;stroke-miterlimit:10;}
	.st8{fill:none;stroke:#FFFFFF;stroke-miterlimit:10;}
	.st9{fill:none;stroke:#FFFFFF;stroke-miterlimit:10;stroke-dasharray:1.9843,2.9764;}
	.st10{fill:none;stroke:#FFFFFF;stroke-miterlimit:10;stroke-dasharray:1.9952,2.9927;}
	.st11{stroke:#FFFFFF;stroke-width:2.4554;stroke-miterlimit:10;}
	.st12{fill:none;stroke:#FFFFFF;stroke-miterlimit:10;stroke-dasharray:2,3;}
	.st13{font-family:'PTSerif-Regular';}
	.st14{font-size:28px;}
	.st15{display:inline;fill:none;stroke:#FFFFFF;stroke-linecap:round;stroke-linejoin:round;stroke-miterlimit:10;}
	.st16{fill:none;stroke:#FFFFFF;stroke-linecap:round;stroke-miterlimit:10;}
	
		.st17{fill:none;stroke:#FFFFFF;stroke-linecap:round;stroke-miterlimit:10;stroke-dasharray:10.0481,13.0626,20.0963,30.1444,7.0337,10.0481;}
	
		.st18{fill:none;stroke:#FFFFFF;stroke-linecap:round;stroke-miterlimit:10;stroke-dasharray:26.3673,11.4258,17.5782,17.5782,6.1524,26.3673;}
	.st19{fill:none;stroke:#FFFFFF;stroke-linecap:round;stroke-miterlimit:10;stroke-dasharray:36.738,3.6738;}
	.st20{fill:none;stroke:#FFFFFF;stroke-linecap:round;stroke-miterlimit:10;stroke-dasharray:9.1845,3.6738,36.738,3.6738;}
	.st21{fill:none;stroke:#FFFFFF;stroke-linecap:round;stroke-miterlimit:10;stroke-dasharray:21.0938,14.0626,3.5156,21.0938;}
	
		.st22{fill:none;stroke:#FFFFFF;stroke-linecap:round;stroke-miterlimit:10;stroke-dasharray:14.0626,3.5156,21.0938,14.0626,3.5156,21.0938;}
	.st23{display:inline;fill:#FFFFFF;}
	.st24{display:inline;fill:none;stroke:#FFFFFF;stroke-miterlimit:10;stroke-dasharray:2,3;}
	.st25{fill:none;stroke:#FFFFFF;stroke-width:3;stroke-linecap:round;stroke-linejoin:round;stroke-miterlimit:10;}
	.st26{clip-path:url(#SVGID_3_);}
	.st27{clip-path:url(#SVGID_5_);}
	.st28{clip-path:url(#SVGID_7_);}
	
		.st29{clip-path:url(#SVGID_9_);fill:none;stroke:#58595B;stroke-width:0.9;stroke-linecap:round;stroke-linejoin:round;stroke-dasharray:0,3.007;}
	.st30{clip-path:url(#SVGID_11_);}
	
		.st31{clip-path:url(#SVGID_13_);fill:none;stroke:#58595B;stroke-width:0.9;stroke-linecap:round;stroke-linejoin:round;stroke-dasharray:0,3.007;}
	.st32{clip-path:url(#SVGID_15_);}
	
		.st33{clip-path:url(#SVGID_17_);fill:none;stroke:#58595B;stroke-width:0.9;stroke-linecap:round;stroke-linejoin:round;stroke-dasharray:0,3.007;}
	.st34{clip-path:url(#SVGID_19_);}
	
		.st35{clip-path:url(#SVGID_21_);fill:none;stroke:#58595B;stroke-width:0.9;stroke-linecap:round;stroke-linejoin:round;stroke-dasharray:0,3.007;}
	.st36{clip-path:url(#SVGID_23_);}
	
		.st37{clip-path:url(#SVGID_25_);fill:none;stroke:#58595B;stroke-width:0.9;stroke-linecap:round;stroke-linejoin:round;stroke-dasharray:0,3.007;}
	.st38{clip-path:url(#SVGID_27_);}
	
		.st39{clip-path:url(#SVGID_29_);fill:none;stroke:#58595B;stroke-width:0.9;stroke-linecap:round;stroke-linejoin:round;stroke-dasharray:0,3.007;}
	.st40{clip-path:url(#SVGID_31_);}
	
		.st41{clip-path:url(#SVGID_33_);fill:none;stroke:#58595B;stroke-width:0.9;stroke-linecap:round;stroke-linejoin:round;stroke-dasharray:0,3.007;}
	.st42{clip-path:url(#SVGID_35_);}
	
		.st43{clip-path:url(#SVGID_37_);fill:none;stroke:#58595B;stroke-width:0.9;stroke-linecap:round;stroke-linejoin:round;stroke-dasharray:0,3.007;}
	.st44{clip-path:url(#SVGID_39_);}
	
		.st45{clip-path:url(#SVGID_41_);fill:none;stroke:#58595B;stroke-width:0.9;stroke-linecap:round;stroke-linejoin:round;stroke-dasharray:0,3.007;}
	.st46{clip-path:url(#SVGID_43_);}
	
		.st47{clip-path:url(#SVGID_45_);fill:none;stroke:#58595B;stroke-width:0.9;stroke-linecap:round;stroke-linejoin:round;stroke-dasharray:0,3.007;}
	.st48{fill:#58595B;}
	.st49{fill:none;stroke:#58595B;stroke-width:0.6;stroke-linecap:round;stroke-linejoin:round;}
	.st50{fill:none;stroke:#F1F2F2;stroke-width:0.6;stroke-linecap:round;stroke-linejoin:round;}
	.st51{display:inline;fill:none;stroke:#9B9C9D;stroke-linecap:round;stroke-linejoin:round;}
	.st52{display:inline;fill:none;stroke:#9B9C9D;stroke-width:0.5;stroke-miterlimit:10;}
	.st53{display:inline;fill:#9B9C9D;}
	.st54{display:inline;fill:none;stroke:#FFFFFF;stroke-width:6;stroke-linecap:round;stroke-linejoin:round;stroke-miterlimit:10;}
	.st55{fill:none;stroke:#FFFFFF;stroke-width:6;stroke-linecap:round;stroke-linejoin:round;}
	.st56{display:inline;fill:none;stroke:#FFFFFF;stroke-width:16;stroke-miterlimit:10;}
	.st57{display:inline;fill:none;stroke:#FFFFFF;stroke-width:13.8298;stroke-linecap:round;stroke-miterlimit:10;}
	.st58{display:none;fill:#006699;}
	.st59{fill:#006699;}
	.st60{fill:none;stroke:#FCFCFC;stroke-width:8;stroke-miterlimit:10;}
	.st61{display:inline;fill:none;stroke:#FCFCFC;stroke-width:8;stroke-miterlimit:10;}
	.st62{display:inline;fill:#FCFCFC;}
	.st63{display:none;fill:none;stroke:#FFFFFF;stroke-width:10;stroke-linecap:round;stroke-linejoin:round;stroke-miterlimit:10;}
	.st64{fill:none;stroke:#FFFFFF;stroke-width:13;stroke-linecap:round;stroke-linejoin:round;}
	.st65{display:none;fill:none;stroke:#FFFFFF;stroke-width:13;stroke-linecap:round;stroke-linejoin:round;stroke-miterlimit:10;}
	
		.st66{display:none;fill:none;stroke:#FFFFFF;stroke-width:16.503;stroke-linecap:round;stroke-linejoin:round;stroke-miterlimit:10;}
	.st67{fill:none;stroke:#FFFFFF;stroke-width:16.503;stroke-linecap:round;stroke-linejoin:round;}
</style>
<g id="Layer_1" class="st0">
	<linearGradient id="SVGID_1_" gradientUnits="userSpaceOnUse" x1="115.6135" y1="325.5175" x2="115.6135" y2="-436.9825">
		<stop  offset="0" style="stop-color:#000000;stop-opacity:0"/>
		<stop  offset="0.6172" style="stop-color:#000000"/>
	</linearGradient>
	<rect x="-494.39" y="-436.98" class="st1" width="1220" height="762.5"/>
	<rect x="-1012.89" y="-1358.98" class="st2" width="5460" height="3446"/>
	<g>
		<g class="st2">
			<path class="st10" d="M-127.89,155.01c54.96,0.13,154.58,2.36,158.4-39"/>
			<path class="st8" d="M30.6,114.51c0.01-0.33,0.02-0.66,0.02-1"/>
		</g>
	</g>
	<text transform="matrix(1 0 0 1 -207.2939 208.4453)" class="st3 st13 st14">papers cited by other works are connected (co-cited)</text>
	<text transform="matrix(1 0 0 1 -426.5625 267.4453)" class="st3 st13 st14">The co-citation network landscape reflects the community&apos;s perception of these papers</text>
	<g>
		<circle class="st23" cx="30.11" cy="96.02" r="13"/>
		<circle class="st23" cx="90.11" cy="96.02" r="13"/>
		<circle class="st23" cx="150.11" cy="96.02" r="13"/>
		<circle class="st23" cx="210.11" cy="96.02" r="13"/>
		<circle class="st23" cx="270.11" cy="96.02" r="13"/>
	</g>
	<g>
		<path class="st24" d="M102.61,12.52c0,57-133.5,32.5-133.5,64.5"/>
		<path class="st24" d="M108.61,12.52c0,57-79.3,32.5-79.3,64.5"/>
		<path class="st24" d="M114.61,12.52c0,57-25.1,32.5-25.1,64.5"/>
		<path class="st24" d="M120.61,12.52c0,57,29.1,32.5,29.1,64.5"/>
		<path class="st24" d="M126.61,12.52c0,57,83.3,32.5,83.3,64.5"/>
		<path class="st24" d="M132.61,12.52c0,57,137.5,32.5,137.5,64.5"/>
	</g>
	<line class="st25" x1="-29.39" y1="95.52" x2="30.61" y2="95.52"/>
</g>
<g id="Layer_2" class="st0">
</g>
<g id="Layer_4">
	<g>
		<path class="st58" d="M226.11,69.02c-2.94-14.71-6.86-64.15-78.72-65h-4.28v20.16c10.69,1.24,19,10.32,19,21.34v47
			c0,11.03-8.31,20.1-19,21.34v36.16c32.72-0.05,62.09-6.17,85-24C227.82,93.61,227.92,78.06,226.11,69.02z"/>
		<path class="st59" d="M58.11,69.02c2.94-14.71,6.86-64.15,78.72-65h4.28v20.16c-10.69,1.24-19,10.32-19,21.34v47
			c0,11.03,8.31,20.1,19,21.34v36.16c-32.72-0.05-62.09-6.17-85-24C56.41,93.61,56.31,78.06,58.11,69.02z"/>
		<path class="st58" d="M140.61,114.02L140.61,114.02c-11.87,0-21.5-9.63-21.5-21.5v-47c0-11.87,9.63-21.5,21.5-21.5h0
			c11.87,0,21.5,9.63,21.5,21.5v47C162.11,104.39,152.49,114.02,140.61,114.02z"/>
		<path class="st60" d="M143.11,4.02c75.99-1.1,80,50,83,65s0,114,4,125s35,146-80,152c-129,0-99-139-96-152s-6.54-101.52,6-136
			C64.11,47.02,74.11,5.02,143.11,4.02z"/>
		<path class="st60" d="M53.37,126c0,0,27.62,24.02,87.75,24.02c65,0,86.6-24.02,86.6-24.02"/>
		<line class="st60" x1="141.51" y1="116.95" x2="141.11" y2="150.02"/>
		<line class="st60" x1="142.93" y1="22.14" x2="143.11" y2="4.02"/>
		<path class="st60" d="M140.61,114.02L140.61,114.02c-11.87,0-21.5-9.63-21.5-21.5v-47c0-11.87,9.63-21.5,21.5-21.5h0
			c11.87,0,21.5,9.63,21.5,21.5v47C162.11,104.39,152.49,114.02,140.61,114.02z"/>
	</g>
</g>
</svg>
