<?xml version="1.0" encoding="utf-8"?>
<!-- Generator: Adobe Illustrator 23.0.6, SVG Export Plug-In . SVG Version: 6.00 Build 0)  -->
<svg version="1.1" xmlns="http://www.w3.org/2000/svg" xmlns:xlink="http://www.w3.org/1999/xlink" x="0px" y="0px"
	 viewBox="0 0 179 182" style="enable-background:new 0 0 179 182;" xml:space="preserve">
<style type="text/css">
	.st0{display:none;}
	.st1{display:inline;fill:url(#SVGID_1_);}
	.st2{display:inline;}
	.st3{fill:#FFFFFF;}
	.st4{display:inline;fill:none;stroke:#FFFFFF;stroke-width:0.5;stroke-miterlimit:10;}
	.st5{display:inline;fill:none;stroke:#FFFFFF;stroke-width:0.5229;stroke-miterlimit:10;}
	.st6{display:inline;fill:none;stroke:#FFFFFF;stroke-width:0.5273;stroke-miterlimit:10;}
	.st7{fill:none;stroke:#FFFFFF;stroke-miterlimit:10;}
	.st8{fill:none;stroke:#FFFFFF;stroke-miterlimit:10;stroke-dasharray:1.9843,2.9764;}
	.st9{fill:none;stroke:#FFFFFF;stroke-miterlimit:10;stroke-dasharray:1.9952,2.9927;}
	.st10{stroke:#FFFFFF;stroke-width:2.4554;stroke-miterlimit:10;}
	.st11{fill:none;stroke:#FFFFFF;stroke-miterlimit:10;stroke-dasharray:2,3;}
	.st12{display:inline;fill:none;stroke:#FFFFFF;stroke-linecap:round;stroke-linejoin:round;stroke-miterlimit:10;}
	.st13{fill:none;stroke:#FFFFFF;stroke-linecap:round;stroke-miterlimit:10;}
	
		.st14{fill:none;stroke:#FFFFFF;stroke-linecap:round;stroke-miterlimit:10;stroke-dasharray:10.0481,13.0626,20.0963,30.1444,7.0337,10.0481;}
	
		.st15{fill:none;stroke:#FFFFFF;stroke-linecap:round;stroke-miterlimit:10;stroke-dasharray:26.3673,11.4258,17.5782,17.5782,6.1524,26.3673;}
	.st16{fill:none;stroke:#FFFFFF;stroke-linecap:round;stroke-miterlimit:10;stroke-dasharray:36.738,3.6738;}
	.st17{fill:none;stroke:#FFFFFF;stroke-linecap:round;stroke-miterlimit:10;stroke-dasharray:9.1845,3.6738,36.738,3.6738;}
	.st18{fill:none;stroke:#FFFFFF;stroke-linecap:round;stroke-miterlimit:10;stroke-dasharray:21.0938,14.0626,3.5156,21.0938;}
	
		.st19{fill:none;stroke:#FFFFFF;stroke-linecap:round;stroke-miterlimit:10;stroke-dasharray:14.0626,3.5156,21.0938,14.0626,3.5156,21.0938;}
	.st20{display:inline;fill:#FFFFFF;}
	.st21{display:inline;fill:none;stroke:#FFFFFF;stroke-miterlimit:10;stroke-dasharray:2,3;}
	.st22{fill:none;stroke:#FFFFFF;stroke-width:3;stroke-linecap:round;stroke-linejoin:round;stroke-miterlimit:10;}
	.st23{clip-path:url(#SVGID_3_);}
	.st24{clip-path:url(#SVGID_5_);}
	.st25{clip-path:url(#SVGID_7_);}
	
		.st26{clip-path:url(#SVGID_9_);fill:none;stroke:#58595B;stroke-width:0.9;stroke-linecap:round;stroke-linejoin:round;stroke-dasharray:0,3.007;}
	.st27{clip-path:url(#SVGID_11_);}
	
		.st28{clip-path:url(#SVGID_13_);fill:none;stroke:#58595B;stroke-width:0.9;stroke-linecap:round;stroke-linejoin:round;stroke-dasharray:0,3.007;}
	.st29{clip-path:url(#SVGID_15_);}
	
		.st30{clip-path:url(#SVGID_17_);fill:none;stroke:#58595B;stroke-width:0.9;stroke-linecap:round;stroke-linejoin:round;stroke-dasharray:0,3.007;}
	.st31{clip-path:url(#SVGID_19_);}
	
		.st32{clip-path:url(#SVGID_21_);fill:none;stroke:#58595B;stroke-width:0.9;stroke-linecap:round;stroke-linejoin:round;stroke-dasharray:0,3.007;}
	.st33{clip-path:url(#SVGID_23_);}
	
		.st34{clip-path:url(#SVGID_25_);fill:none;stroke:#58595B;stroke-width:0.9;stroke-linecap:round;stroke-linejoin:round;stroke-dasharray:0,3.007;}
	.st35{clip-path:url(#SVGID_27_);}
	
		.st36{clip-path:url(#SVGID_29_);fill:none;stroke:#58595B;stroke-width:0.9;stroke-linecap:round;stroke-linejoin:round;stroke-dasharray:0,3.007;}
	.st37{clip-path:url(#SVGID_31_);}
	
		.st38{clip-path:url(#SVGID_33_);fill:none;stroke:#58595B;stroke-width:0.9;stroke-linecap:round;stroke-linejoin:round;stroke-dasharray:0,3.007;}
	.st39{clip-path:url(#SVGID_35_);}
	
		.st40{clip-path:url(#SVGID_37_);fill:none;stroke:#58595B;stroke-width:0.9;stroke-linecap:round;stroke-linejoin:round;stroke-dasharray:0,3.007;}
	.st41{clip-path:url(#SVGID_39_);}
	
		.st42{clip-path:url(#SVGID_41_);fill:none;stroke:#58595B;stroke-width:0.9;stroke-linecap:round;stroke-linejoin:round;stroke-dasharray:0,3.007;}
	.st43{clip-path:url(#SVGID_43_);}
	
		.st44{clip-path:url(#SVGID_45_);fill:none;stroke:#58595B;stroke-width:0.9;stroke-linecap:round;stroke-linejoin:round;stroke-dasharray:0,3.007;}
	.st45{display:none;fill:#FFFFFF;}
	.st46{display:none;fill:#58595B;}
	.st47{display:none;fill:none;stroke:#58595B;stroke-width:0.6;stroke-linecap:round;stroke-linejoin:round;}
	.st48{display:none;fill:none;stroke:#F1F2F2;stroke-width:0.6;stroke-linecap:round;stroke-linejoin:round;}
	.st49{display:inline;fill:none;stroke:#9B9C9D;stroke-linecap:round;stroke-linejoin:round;}
	.st50{display:inline;fill:none;stroke:#9B9C9D;stroke-width:0.5;stroke-miterlimit:10;}
	.st51{display:inline;fill:#9B9C9D;}
	.st52{fill:none;stroke:#FFFFFF;stroke-width:6;stroke-linecap:round;stroke-linejoin:round;stroke-miterlimit:10;}
	.st53{fill:none;stroke:#FFFFFF;stroke-width:6;stroke-linecap:round;stroke-linejoin:round;}
	.st54{display:inline;fill:none;stroke:#FCFCFC;stroke-width:8;stroke-miterlimit:10;}
	.st55{display:inline;opacity:0.34;fill:#FCFCFC;}
	.st56{display:inline;fill:#FCFCFC;}
	.st57{display:none;fill:none;stroke:#FFFFFF;stroke-width:10;stroke-linecap:round;stroke-linejoin:round;stroke-miterlimit:10;}
	.st58{fill:none;stroke:#FFFFFF;stroke-width:13;stroke-linecap:round;stroke-linejoin:round;}
	.st59{display:none;fill:none;stroke:#FFFFFF;stroke-width:13;stroke-linecap:round;stroke-linejoin:round;stroke-miterlimit:10;}
	
		.st60{display:none;fill:none;stroke:#FFFFFF;stroke-width:16.503;stroke-linecap:round;stroke-linejoin:round;stroke-miterlimit:10;}
	.st61{fill:none;stroke:#FFFFFF;stroke-width:16.503;stroke-linecap:round;stroke-linejoin:round;}
</style>
<g id="Layer_1" class="st0">
	<linearGradient id="SVGID_1_" gradientUnits="userSpaceOnUse" x1="0.5" y1="563.5" x2="0.5" y2="-199">
		<stop  offset="0" style="stop-color:#000000;stop-opacity:0"/>
		<stop  offset="0.6172" style="stop-color:#000000"/>
	</linearGradient>
	<rect x="-609.5" y="-199" class="st1" width="1220" height="762.5"/>
	<rect x="-1281" y="-1233" class="st2" width="5460" height="3446"/>
	<g>
		<g class="st2">
			<path class="st3" d="M-59.27-52C-27.69-52-2-26.31-2,5.27v225.25c0,0.17-0.14,0.18-0.19,0.18c-0.02,0-0.05,0-0.11-0.06
				c-15.52-14.25-57.53-17.17-115.83-17.17c-12.62,0-25.79,0.14-38.54,0.27c-12.01,0.12-24.4,0.25-36.34,0.27V-52H-59.27 M-59.27-55
				H-196v272c0.29,0,0.57,0,0.86,0c25.2,0,51.81-0.53,77.01-0.53c52.23,0,98.46,2.29,113.8,16.38c0.64,0.58,1.39,0.85,2.14,0.85
				c1.63,0,3.19-1.27,3.19-3.18V5.27C1-28.02-25.98-55-59.27-55L-59.27-55z"/>
		</g>
		<g class="st2">
			<path class="st3" d="M194-52v266c-11.93-0.01-24.33-0.14-36.34-0.27c-12.74-0.13-25.92-0.27-38.54-0.27
				c-58.64,0-100.85,2.97-116.13,17.45V5.27C3-26.31,28.69-52,60.27-52H194 M197-55H60.27C26.98-55,0-28.02,0,5.27v226.05
				c0,1.71,1.38,2.82,2.83,2.82c0.71,0,1.43-0.26,2.02-0.84c14.86-14.49,61.5-16.83,114.27-16.83c25.2,0,51.81,0.53,77.01,0.53
				c0.29,0,0.57,0,0.86,0V-55L197-55z"/>
		</g>
		<g class="st2">
			<g>
				<path class="st14" d="M155.97-5.5h-81.7c-11.08,0-21.47,2.99-30.39,8.21"/>
				<path class="st13" d="M35.67,8.48c-3.84,3.21-7.27,6.88-10.22,10.93"/>
			</g>
		</g>
		<path class="st12" d="M178.5,93.5H74.77c-20.08,0-37.86,9.82-48.82,24.92"/>
		<g class="st2">
			<g>
				<line class="st13" x1="178.5" y1="118.5" x2="168.5" y2="118.5"/>
				<path class="st15" d="M162.35,118.5H74.77c-13.33,0-25.64,4.33-35.62,11.65"/>
				<path class="st13" d="M32.46,135.84c-2.37,2.34-4.55,4.87-6.51,7.57"/>
			</g>
		</g>
		<g class="st2">
			<g>
				<line class="st13" x1="178.5" y1="143.5" x2="173.5" y2="143.5"/>
				<line class="st16" x1="169.83" y1="143.5" x2="131.25" y2="143.5"/>
				<path class="st17" d="M129.41,143.5H74.77c-17.62,0-33.48,7.56-44.5,19.62"/>
				<path class="st13" d="M29.05,164.5c-1.09,1.26-2.12,2.57-3.1,3.92"/>
			</g>
		</g>
		<g class="st2">
			<g>
				<line class="st13" x1="178.5" y1="168.5" x2="168.5" y2="168.5"/>
				<line class="st18" x1="164.98" y1="168.5" x2="115.77" y2="168.5"/>
				<path class="st19" d="M105.22,168.5H74.77c-12.69,0-24.47,3.92-34.19,10.63"/>
			</g>
		</g>
		<path class="st12" d="M178,73.5H74.27c-20.08,0-37.86,9.82-48.82,24.92v-54C36.4,29.32,54.19,19.5,74.27,19.5H178V73.5z"/>
	</g>
</g>
<g id="Layer_2">
	<rect x="66" y="20" class="st52" width="97" height="97"/>
	<polygon class="st52" points="66,117 66,68 17,68 17,165 114,165 114,117 	"/>
	<g>
		<g>
			<line class="st53" x1="92" y1="92" x2="134.45" y2="48.65"/>
			<g>
				<polygon class="st3" points="138.07,80.02 132.07,79.87 132.84,50.3 103.29,51.69 103.01,45.69 139,44 				"/>
			</g>
		</g>
	</g>
</g>
<g id="Layer_4">
</g>
</svg>
