<?xml version="1.0" encoding="utf-8"?>
<!-- Generator: Adobe Illustrator 23.0.6, SVG Export Plug-In . SVG Version: 6.00 Build 0)  -->
<svg version="1.1" id="Layer_1" xmlns="http://www.w3.org/2000/svg" xmlns:xlink="http://www.w3.org/1999/xlink" x="0px" y="0px"
	 viewBox="0 0 96 70.5" style="enable-background:new 0 0 96 70.5;" xml:space="preserve">
<style type="text/css">
	.st0{display:none;}
	.st1{display:inline;}
	.st2{fill:#FFFFFF;}
	.st3{display:inline;fill:none;stroke:#FFFFFF;stroke-linecap:round;stroke-linejoin:round;stroke-miterlimit:10;}
	.st4{fill:none;stroke:#FFFFFF;stroke-linecap:round;stroke-miterlimit:10;}
	
		.st5{fill:none;stroke:#FFFFFF;stroke-linecap:round;stroke-miterlimit:10;stroke-dasharray:10.0481,13.0626,20.0963,30.1444,7.0337,10.0481;}
	
		.st6{fill:none;stroke:#FFFFFF;stroke-linecap:round;stroke-miterlimit:10;stroke-dasharray:26.3673,11.4258,17.5782,17.5782,6.1524,26.3673;}
	.st7{fill:none;stroke:#FFFFFF;stroke-linecap:round;stroke-miterlimit:10;stroke-dasharray:36.738,3.6738;}
	.st8{fill:none;stroke:#FFFFFF;stroke-linecap:round;stroke-miterlimit:10;stroke-dasharray:9.1845,3.6738,36.738,3.6738;}
	.st9{fill:none;stroke:#FFFFFF;stroke-linecap:round;stroke-miterlimit:10;stroke-dasharray:21.0938,14.0626,3.5156,21.0938;}
	
		.st10{fill:none;stroke:#FFFFFF;stroke-linecap:round;stroke-miterlimit:10;stroke-dasharray:14.0626,3.5156,21.0938,14.0626,3.5156,21.0938;}
	.st11{display:inline;fill:none;stroke:#FFFFFF;stroke-width:3;stroke-linecap:round;stroke-miterlimit:10;stroke-dasharray:1,8;}
	.st12{display:inline;fill:#FFFFFF;}
	.st13{display:inline;fill:none;stroke:#FFFFFF;stroke-width:1.5;stroke-miterlimit:10;}
	.st14{fill:none;stroke:#FFFFFF;stroke-width:4;stroke-linecap:round;stroke-miterlimit:10;}
	.st15{fill:none;stroke:#FFFFFF;stroke-width:4;stroke-linecap:round;stroke-miterlimit:10;stroke-dasharray:4.9597,9.9194;}
	.st16{fill:none;stroke:#FFFFFF;stroke-width:4;stroke-linecap:round;stroke-miterlimit:10;stroke-dasharray:4.9877,9.9754;}
	.st17{display:none;fill:none;stroke:#FFFFFF;stroke-width:3;stroke-linecap:round;stroke-linejoin:round;stroke-miterlimit:10;}
</style>
<g class="st0">
	<g class="st1">
		<path class="st2" d="M-11.77-106.78c31.58,0,57.27,25.69,57.27,57.27v225.25c0,0.17-0.14,0.18-0.19,0.18c-0.02,0-0.05,0-0.11-0.06
			c-15.52-14.25-57.53-17.17-115.83-17.17c-12.62,0-25.79,0.14-38.54,0.27c-12.01,0.12-24.4,0.25-36.34,0.27v-266H-11.77
			 M-11.77-109.78H-148.5v272c0.29,0,0.58,0,0.87,0c25.2,0,51.8-0.53,77.01-0.53c52.23,0,98.46,2.29,113.8,16.38
			c0.64,0.58,1.39,0.85,2.14,0.85c1.63,0,3.19-1.27,3.19-3.18V-49.51C48.5-82.8,21.52-109.78-11.77-109.78L-11.77-109.78z"/>
	</g>
	<g class="st1">
		<path class="st2" d="M241.5-106.78v266c-11.93-0.01-24.33-0.14-36.34-0.27c-12.74-0.13-25.92-0.27-38.54-0.27
			c-58.64,0-100.85,2.97-116.13,17.45V-49.51c0-31.58,25.69-57.27,57.27-57.27H241.5 M244.5-109.78H107.77
			c-33.28,0-60.27,26.98-60.27,60.27v226.05c0,1.71,1.38,2.82,2.83,2.82c0.71,0,1.43-0.26,2.02-0.84
			c14.86-14.49,61.5-16.83,114.27-16.83c25.2,0,51.81,0.53,77.01,0.53c0.29,0,0.57,0,0.86,0V-109.78L244.5-109.78z"/>
	</g>
	<path class="st3" d="M225.5-85.28H121.77c-20.08,0-37.86,9.82-48.82,24.92"/>
	<g class="st1">
		<g>
			<line class="st4" x1="225.5" y1="-60.28" x2="210.5" y2="-60.28"/>
			<path class="st5" d="M203.47-60.28h-81.7c-11.08,0-21.47,2.99-30.39,8.21"/>
			<path class="st4" d="M83.17-46.3c-3.84,3.21-7.27,6.88-10.22,10.93"/>
		</g>
	</g>
	<path class="st3" d="M226,38.72H122.27c-20.08,0-37.86,9.82-48.82,24.92"/>
	<g class="st1">
		<g>
			<line class="st4" x1="226" y1="63.72" x2="216" y2="63.72"/>
			<path class="st6" d="M209.85,63.72h-87.58c-13.33,0-25.64,4.33-35.62,11.65"/>
			<path class="st4" d="M79.96,81.06c-2.37,2.34-4.55,4.87-6.51,7.57"/>
		</g>
	</g>
	<g class="st1">
		<g>
			<line class="st4" x1="226" y1="88.72" x2="221" y2="88.72"/>
			<line class="st7" x1="217.33" y1="88.72" x2="178.75" y2="88.72"/>
			<path class="st8" d="M176.91,88.72h-54.65c-17.62,0-33.48,7.56-44.5,19.62"/>
			<path class="st4" d="M76.55,109.71c-1.09,1.26-2.12,2.57-3.1,3.92"/>
		</g>
	</g>
	<g class="st1">
		<g>
			<line class="st4" x1="226" y1="113.72" x2="216" y2="113.72"/>
			<line class="st9" x1="212.48" y1="113.72" x2="163.27" y2="113.72"/>
			<path class="st10" d="M152.72,113.72h-30.45c-12.69,0-24.47,3.92-34.19,10.63"/>
			<path class="st4" d="M79.96,131.06c-2.37,2.34-4.55,4.87-6.51,7.57"/>
		</g>
	</g>
	<path class="st3" d="M225.5,18.72H121.77c-20.08,0-37.86,9.82-48.82,24.92v-54c10.95-15.1,28.74-24.92,48.82-24.92H225.5V18.72z"/>
	<path class="st3" d="M-126-14.28h103.73c20.08,0,37.86,9.82,48.82,24.92"/>
	<g class="st1">
		<g>
			<line class="st4" x1="-126" y1="10.72" x2="-111" y2="10.72"/>
			<path class="st5" d="M-103.97,10.72h81.7c11.08,0,21.47,2.99,30.39,8.21"/>
			<path class="st4" d="M16.33,24.7c3.84,3.21,7.27,6.88,10.22,10.93"/>
		</g>
	</g>
	<path class="st3" d="M26.55-14.37C15.6-29.46-2.19-39.28-22.27-39.28v-46c20.08,0,37.86,9.82,48.82,24.92V-14.37z"/>
	<path class="st3" d="M-126.05,38.72h103.73c20.08,0,37.86,9.82,48.82,24.92"/>
	<g class="st1">
		<g>
			<line class="st4" x1="-126.05" y1="63.72" x2="-116.05" y2="63.72"/>
			<path class="st6" d="M-109.9,63.72h87.58c13.33,0,25.64,4.33,35.62,11.65"/>
			<path class="st4" d="M19.99,81.06c2.37,2.34,4.55,4.87,6.51,7.57"/>
		</g>
	</g>
	<g class="st1">
		<g>
			<line class="st4" x1="-126.05" y1="88.72" x2="-121.05" y2="88.72"/>
			<line class="st7" x1="-117.37" y1="88.72" x2="-78.8" y2="88.72"/>
			<path class="st8" d="M-76.96,88.72h54.65c17.62,0,33.48,7.56,44.5,19.62"/>
			<path class="st4" d="M23.4,109.71c1.09,1.26,2.12,2.57,3.1,3.92"/>
		</g>
	</g>
	<g class="st1">
		<g>
			<line class="st4" x1="-126.05" y1="113.72" x2="-116.05" y2="113.72"/>
			<line class="st9" x1="-112.53" y1="113.72" x2="-63.31" y2="113.72"/>
			<path class="st10" d="M-52.77,113.72h30.45c12.69,0,24.47,3.92,34.19,10.63"/>
			<path class="st4" d="M19.99,131.06c2.37,2.34,4.55,4.87,6.51,7.57"/>
		</g>
	</g>
	<rect x="-119" y="-85.28" class="st3" width="77" height="50"/>
</g>
<g class="st0">
	<path class="st11" d="M31-1c0,57-133.5,32.5-133.5,64.5"/>
	<path class="st11" d="M37-1c0,57-79.3,32.5-79.3,64.5"/>
	<path class="st11" d="M43-1c0,57-25.1,32.5-25.1,64.5"/>
	<path class="st11" d="M49-1c0,57,29.1,32.5,29.1,64.5"/>
	<path class="st11" d="M55-1c0,57,83.3,32.5,83.3,64.5"/>
	<path class="st11" d="M61-1c0,57,137.5,32.5,137.5,64.5"/>
</g>
<g class="st0">
	<circle class="st12" cx="-102" cy="35.25" r="13"/>
	<circle class="st12" cx="-42" cy="35.25" r="13"/>
	<circle class="st12" cx="18" cy="35.25" r="13"/>
	<circle class="st12" cx="78" cy="35.25" r="13"/>
	<circle class="st12" cx="138" cy="35.25" r="13"/>
	<circle class="st12" cx="198" cy="35.25" r="13"/>
</g>
<g class="st0">
	<g class="st1">
		<path class="st2" d="M87.25,152.25c12.96,0,23.5,10.54,23.5,23.5v98.5h-95.5v-122H87.25 M87.25,149.25h-75v128h101.5v-101.5
			C113.75,161.11,101.89,149.25,87.25,149.25L87.25,149.25z"/>
	</g>
	<polyline class="st13" points="87.5,156 87.5,176 107.5,176 	"/>
	<rect x="27" y="172" class="st13" width="54" height="10.5"/>
	<rect x="27" y="191" class="st13" width="35" height="72.5"/>
	<rect x="67" y="191" class="st13" width="33.5" height="54.5"/>
	<rect x="67" y="250.5" class="st13" width="33.5" height="13"/>
</g>
<g class="st0">
	<g class="st1">
		<path class="st2" d="M11.25-4.75c12.96,0,23.5,10.54,23.5,23.5v98.5h-95.5v-122H11.25 M11.25-7.75h-75v128h101.5V18.75
			C37.75,4.11,25.89-7.75,11.25-7.75L11.25-7.75z"/>
	</g>
	<polyline class="st13" points="11.5,-1 11.5,19 31.5,19 	"/>
	<rect x="-49" y="15" class="st13" width="54" height="10.5"/>
	<rect x="-49" y="34" class="st13" width="35" height="72.5"/>
	<rect x="-9" y="34" class="st13" width="33.5" height="54.5"/>
	<rect x="-9" y="93.5" class="st13" width="33.5" height="13"/>
</g>
<g class="st0">
	<g class="st1">
		<path class="st2" d="M75.25-159.75c12.96,0,23.5,10.54,23.5,23.5v98.5H3.25v-122H75.25 M75.25-162.75h-75v128h101.5v-101.5
			C101.75-150.89,89.89-162.75,75.25-162.75L75.25-162.75z"/>
	</g>
	<polyline class="st13" points="75.5,-156 75.5,-136 95.5,-136 	"/>
	<rect x="15" y="-140" class="st13" width="54" height="10.5"/>
	<rect x="15" y="-121" class="st13" width="35" height="72.5"/>
	<rect x="55" y="-121" class="st13" width="33.5" height="54.5"/>
	<rect x="55" y="-61.5" class="st13" width="33.5" height="13"/>
</g>
<g class="st0">
	<g class="st1">
		<path class="st14" d="M-7,81.75c0.85,0,1.68-0.01,2.5-0.04"/>
		<path class="st15" d="M5.36,80.68c38.13-7.27,29.03-48.93,80.18-51.78"/>
		<path class="st14" d="M90.5,28.74c0.82-0.01,1.65,0,2.5,0.01"/>
	</g>
</g>
<g class="st0">
	<g class="st1">
		<path class="st14" d="M-6,86.74c0.82,0,1.65,0,2.5,0"/>
		<path class="st16" d="M6.48,86.77c53.68,0.21,138.53,0.27,148.96-34.14"/>
		<path class="st14" d="M156.39,47.75c0.08-0.81,0.11-1.65,0.11-2.49"/>
	</g>
</g>
<line class="st17" x1="18" y1="35.25" x2="78" y2="35.25"/>
<g>
	<rect y="26.53" class="st2" width="96" height="17.82"/>
	<rect y="52.68" class="st2" width="96" height="17.82"/>
	<rect class="st2" width="96" height="18.59"/>
</g>
</svg>
