<?xml version="1.0" standalone="no"?><!DOCTYPE svg PUBLIC "-//W3C//DTD SVG 1.1//EN" "http://www.w3.org/Graphics/SVG/1.1/DTD/svg11.dtd"><svg t="1648199329253" class="icon" viewBox="0 0 1024 1024" version="1.1" xmlns="http://www.w3.org/2000/svg" p-id="19068" xmlns:xlink="http://www.w3.org/1999/xlink" width="32" height="32"><defs><style type="text/css">@font-face { font-family: feedback-iconfont; src: url("//at.alicdn.com/t/font_1031158_u69w8yhxdu.woff2?t=1630033759944") format("woff2"), url("//at.alicdn.com/t/font_1031158_u69w8yhxdu.woff?t=1630033759944") format("woff"), url("//at.alicdn.com/t/font_1031158_u69w8yhxdu.ttf?t=1630033759944") format("truetype"); }
</style></defs><path d="M841.510615 439.347486v511.427933H267.155307v61.78324h636.138548V155.602235h-61.78324v283.745251z" fill="#f4ea2a" p-id="19069" data-spm-anchor-id="a313x.7781069.0.i17" class=""></path><path d="M841.510615 144.160894V70.936313h-73.224581V0H109.264804v879.839106h73.224581v70.936313h73.224581v73.224581h659.02123V144.160894zM182.489385 868.397765H120.706145V11.441341h636.138548v59.494972H182.489385z m11.441341 70.936313V82.377654h636.138548v356.969832H362.118436v439.347486h467.950838v60.639106z m636.138548-488.545251v416.464804H373.559777V450.788827z m73.224581 561.769832H267.155307v-61.78324h574.355308V155.602235h61.78324z" fill="" p-id="19070"></path><path d="M756.844693 11.441341H120.706145v856.956424h61.78324V70.936313h574.355308V11.441341z" fill="#1afa29" p-id="19071" data-spm-anchor-id="a313x.7781069.0.i16" class=""></path><path d="M830.069274 878.694972H362.118436V439.347486h467.950838V82.377654H193.930726v856.956424h636.138548v-60.639106z" fill="#FFFFFF" p-id="19072"></path><path d="M691.28581 751.364291m-7.883084 0a7.883084 7.883084 0 1 0 15.766168 0 7.883084 7.883084 0 1 0-15.766168 0Z" fill="#FFCC00" p-id="19073"></path><path d="M690.828156 794.02905a10.640447 10.640447 0 1 0-10.640447-10.640447 10.651888 10.651888 0 0 0 10.640447 10.640447z" fill="#FFCC00" p-id="19074"></path><path d="M830.069274 867.253631V450.788827H373.559777v416.464804z m-100.683799-135.007821h13.729609v35.468156l20.594413-35.468156h13.729609l-20.594413 35.468156 20.594413 37.756425h-13.729609l-20.594413-37.756425v37.756425h-13.729609z m-57.42409 19.118481a19.324425 19.324425 0 1 1 32.150168 14.416089 22.081788 22.081788 0 1 1-26.086257-0.377564 19.244335 19.244335 0 0 1-6.063911-14.038525z" fill="#1296db" p-id="19075" data-spm-anchor-id="a313x.7781069.0.i18" class="selected"></path><path d="M668.746369 783.388603a22.081788 22.081788 0 1 0 35.376625-17.608223 19.324425 19.324425 0 1 0-26.086257-0.377564A22.036022 22.036022 0 0 0 668.746369 783.388603z m22.539441-39.895955a7.883084 7.883084 0 1 1-7.883084 7.883084 7.894525 7.894525 0 0 1 7.883084-7.883084z m-0.457654 29.255508a10.640447 10.640447 0 1 1-10.640447 10.640447 10.651888 10.651888 0 0 1 10.640447-10.640447zM743.115084 767.713966v-35.468156h-13.729609v73.224581h13.729609v-37.756425zM777.439106 805.470391l-20.594413-37.756425 20.594413-35.468156h-13.729609l-20.594413 35.468156 20.594413 37.756425h13.729609z" fill="" p-id="19076"></path></svg>