<?xml version="1.0" encoding="utf-8"?>
<!-- Generator: Adobe Illustrator 23.0.1, SVG Export Plug-In . SVG Version: 6.00 Build 0)  -->
<svg version="1.1" id="Layer_1" xmlns="http://www.w3.org/2000/svg" xmlns:xlink="http://www.w3.org/1999/xlink" x="0px" y="0px"
	 viewBox="0 0 207.2 168.5" style="enable-background:new 0 0 207.2 168.5;" xml:space="preserve">
<style type="text/css">
	.st0{display:none;}
	.st1{display:inline;fill:none;stroke:#9B9C9D;stroke-width:0.5;stroke-miterlimit:10;}
	.st2{display:inline;fill:none;stroke:#9B9C9D;stroke-linecap:round;stroke-linejoin:round;}
	.st3{fill:#FFFFFF;}
	.st4{fill:#9B9C9D;}
</style>
<g>
	<g>
		<g class="st0">
			<path class="st1" d="M152.7,123.5c-38,8-124-28-77.2-64"/>
			<path class="st1" d="M8.7,121.5c-3,13,38,30,47.5-8.1"/>
			<path class="st1" d="M63.2,26c0,0.1-1.5,15.5,14.5,20.5"/>
			<path class="st2" d="M175.2,68c0,0-6,45.5-33,44.3"/>
			<path class="st2" d="M133.8,11.5c0,0,20.4,20.1-38.4,39.4c0,0-52.5,13.7-35.7,49.6c15,32,74.1,39.6,74.1,39.6"/>
			<path class="st2" d="M18.7,157c0,0,42.7-2.6,38-66.5"/>
			<path class="st2" d="M100,49.4c-4.3,0.4-36.2,50,19.8,61.1c49.5,9.9,58-21,77.7-29.1"/>
			<path class="st2" d="M27.7,24.6c0,0-9,15.6,24,14.1c12.1-0.5,32,18,62.6,4.8"/>
			<path class="st2" d="M23.9,46.4c0,0,2.1,4.9,27.9-7.7"/>
		</g>
		<circle class="st3" cx="22.5" cy="46.2" r="6.2"/>
		<circle class="st3" cx="133.7" cy="140" r="9"/>
		<circle class="st3" cx="19.2" cy="157" r="9"/>
		<circle class="st3" cx="197.7" cy="81.5" r="5.6"/>
		<circle class="st3" cx="174.7" cy="68.5" r="5.6"/>
		<circle class="st3" cx="133.7" cy="11.5" r="5.6"/>
		<circle class="st4" cx="152.6" cy="123.3" r="3.8"/>
		<circle class="st4" cx="8.6" cy="121.3" r="3.8"/>
		<circle class="st4" cx="63.6" cy="26.3" r="3.8"/>
		<circle class="st3" cx="28.5" cy="23.2" r="6.2"/>
	</g>
</g>
</svg>
