<?xml version="1.0" encoding="utf-8"?>
<!-- Generator: Adobe Illustrator 23.0.6, SVG Export Plug-In . SVG Version: 6.00 Build 0)  -->
<svg version="1.1" xmlns="http://www.w3.org/2000/svg" xmlns:xlink="http://www.w3.org/1999/xlink" x="0px" y="0px"
	 viewBox="0 0 187 192" style="enable-background:new 0 0 187 192;" xml:space="preserve">
<style type="text/css">
	.st0{display:none;fill:url(#SVGID_1_);}
	.st1{display:none;}
	.st2{fill:#FFFFFF;}
	.st3{fill:none;stroke:#FFFFFF;stroke-width:7;stroke-linecap:round;stroke-linejoin:round;stroke-miterlimit:10;}
	.st4{display:inline;fill:#FFFFFF;}
	.st5{display:inline;}
	.st6{display:inline;fill:none;stroke:#FFFFFF;stroke-width:0.5;stroke-miterlimit:10;}
	.st7{display:inline;fill:none;stroke:#FFFFFF;stroke-width:0.5229;stroke-miterlimit:10;}
	.st8{display:inline;fill:none;stroke:#FFFFFF;stroke-width:0.5273;stroke-miterlimit:10;}
	.st9{fill:none;stroke:#FFFFFF;stroke-miterlimit:10;}
	.st10{fill:none;stroke:#FFFFFF;stroke-miterlimit:10;stroke-dasharray:1.9843,2.9764;}
	.st11{fill:none;stroke:#FFFFFF;stroke-miterlimit:10;stroke-dasharray:1.9952,2.9927;}
	.st12{display:none;fill:#FFFFFF;}
	.st13{display:none;stroke:#FFFFFF;stroke-width:2.4554;stroke-miterlimit:10;}
	.st14{display:none;fill:none;stroke:#FFFFFF;stroke-miterlimit:10;stroke-dasharray:2,3;}
	.st15{display:inline;fill:none;stroke:#FFFFFF;stroke-linecap:round;stroke-linejoin:round;stroke-miterlimit:10;}
	.st16{fill:none;stroke:#FFFFFF;stroke-linecap:round;stroke-miterlimit:10;}
	
		.st17{fill:none;stroke:#FFFFFF;stroke-linecap:round;stroke-miterlimit:10;stroke-dasharray:10.0481,13.0626,20.0963,30.1444,7.0337,10.0481;}
	
		.st18{fill:none;stroke:#FFFFFF;stroke-linecap:round;stroke-miterlimit:10;stroke-dasharray:26.3673,11.4258,17.5782,17.5782,6.1524,26.3673;}
	.st19{fill:none;stroke:#FFFFFF;stroke-linecap:round;stroke-miterlimit:10;stroke-dasharray:36.738,3.6738;}
	.st20{fill:none;stroke:#FFFFFF;stroke-linecap:round;stroke-miterlimit:10;stroke-dasharray:9.1845,3.6738,36.738,3.6738;}
	.st21{fill:none;stroke:#FFFFFF;stroke-linecap:round;stroke-miterlimit:10;stroke-dasharray:21.0938,14.0626,3.5156,21.0938;}
	
		.st22{fill:none;stroke:#FFFFFF;stroke-linecap:round;stroke-miterlimit:10;stroke-dasharray:14.0626,3.5156,21.0938,14.0626,3.5156,21.0938;}
	.st23{display:inline;fill:none;stroke:#FFFFFF;stroke-miterlimit:10;stroke-dasharray:2,3;}
	.st24{display:none;fill:none;stroke:#FFFFFF;stroke-width:3;stroke-linecap:round;stroke-linejoin:round;stroke-miterlimit:10;}
	.st25{clip-path:url(#SVGID_3_);}
	.st26{clip-path:url(#SVGID_5_);}
	.st27{clip-path:url(#SVGID_7_);}
	
		.st28{clip-path:url(#SVGID_9_);fill:none;stroke:#58595B;stroke-width:0.9;stroke-linecap:round;stroke-linejoin:round;stroke-dasharray:0,3.007;}
	.st29{clip-path:url(#SVGID_11_);}
	
		.st30{clip-path:url(#SVGID_13_);fill:none;stroke:#58595B;stroke-width:0.9;stroke-linecap:round;stroke-linejoin:round;stroke-dasharray:0,3.007;}
	.st31{clip-path:url(#SVGID_15_);}
	
		.st32{clip-path:url(#SVGID_17_);fill:none;stroke:#58595B;stroke-width:0.9;stroke-linecap:round;stroke-linejoin:round;stroke-dasharray:0,3.007;}
	.st33{clip-path:url(#SVGID_19_);}
	
		.st34{clip-path:url(#SVGID_21_);fill:none;stroke:#58595B;stroke-width:0.9;stroke-linecap:round;stroke-linejoin:round;stroke-dasharray:0,3.007;}
	.st35{clip-path:url(#SVGID_23_);}
	
		.st36{clip-path:url(#SVGID_25_);fill:none;stroke:#58595B;stroke-width:0.9;stroke-linecap:round;stroke-linejoin:round;stroke-dasharray:0,3.007;}
	.st37{clip-path:url(#SVGID_27_);}
	
		.st38{clip-path:url(#SVGID_29_);fill:none;stroke:#58595B;stroke-width:0.9;stroke-linecap:round;stroke-linejoin:round;stroke-dasharray:0,3.007;}
	.st39{clip-path:url(#SVGID_31_);}
	
		.st40{clip-path:url(#SVGID_33_);fill:none;stroke:#58595B;stroke-width:0.9;stroke-linecap:round;stroke-linejoin:round;stroke-dasharray:0,3.007;}
	.st41{clip-path:url(#SVGID_35_);}
	
		.st42{clip-path:url(#SVGID_37_);fill:none;stroke:#58595B;stroke-width:0.9;stroke-linecap:round;stroke-linejoin:round;stroke-dasharray:0,3.007;}
	.st43{clip-path:url(#SVGID_39_);}
	
		.st44{clip-path:url(#SVGID_41_);fill:none;stroke:#58595B;stroke-width:0.9;stroke-linecap:round;stroke-linejoin:round;stroke-dasharray:0,3.007;}
	.st45{clip-path:url(#SVGID_43_);}
	
		.st46{clip-path:url(#SVGID_45_);fill:none;stroke:#58595B;stroke-width:0.9;stroke-linecap:round;stroke-linejoin:round;stroke-dasharray:0,3.007;}
	.st47{fill:#58595B;}
	.st48{fill:none;stroke:#58595B;stroke-width:0.6;stroke-linecap:round;stroke-linejoin:round;}
	.st49{fill:none;stroke:#F1F2F2;stroke-width:0.6;stroke-linecap:round;stroke-linejoin:round;}
	.st50{display:inline;fill:none;stroke:#9B9C9D;stroke-linecap:round;stroke-linejoin:round;}
	.st51{display:inline;fill:none;stroke:#9B9C9D;stroke-width:0.5;stroke-miterlimit:10;}
	.st52{display:inline;fill:#9B9C9D;}
	.st53{display:inline;fill:none;stroke:#FFFFFF;stroke-width:6;stroke-linecap:round;stroke-linejoin:round;stroke-miterlimit:10;}
	.st54{fill:none;stroke:#FFFFFF;stroke-width:6;stroke-linecap:round;stroke-linejoin:round;}
	.st55{display:inline;fill:none;stroke:#FFFFFF;stroke-width:16;stroke-miterlimit:10;}
	.st56{display:inline;fill:none;stroke:#FFFFFF;stroke-width:13.8298;stroke-linecap:round;stroke-miterlimit:10;}
	.st57{fill:#00A1F2;}
	.st58{display:none;fill:#00A1F2;}
	.st59{fill:none;stroke:#FCFCFC;stroke-width:8;stroke-miterlimit:10;}
	.st60{display:inline;fill:none;stroke:#FCFCFC;stroke-width:8;stroke-miterlimit:10;}
	.st61{display:inline;fill:#FCFCFC;}
	.st62{display:none;fill:none;stroke:#FFFFFF;stroke-width:10;stroke-linecap:round;stroke-linejoin:round;stroke-miterlimit:10;}
	.st63{fill:none;stroke:#FFFFFF;stroke-width:13;stroke-linecap:round;stroke-linejoin:round;}
	.st64{display:none;fill:none;stroke:#FFFFFF;stroke-width:13;stroke-linecap:round;stroke-linejoin:round;stroke-miterlimit:10;}
	
		.st65{display:none;fill:none;stroke:#FFFFFF;stroke-width:16.503;stroke-linecap:round;stroke-linejoin:round;stroke-miterlimit:10;}
	.st66{fill:none;stroke:#FFFFFF;stroke-width:16.503;stroke-linecap:round;stroke-linejoin:round;}
</style>
<g id="Layer_1">
	<linearGradient id="SVGID_1_" gradientUnits="userSpaceOnUse" x1="489.5" y1="527.5" x2="489.5" y2="-235">
		<stop  offset="0" style="stop-color:#000000;stop-opacity:0"/>
		<stop  offset="0.6172" style="stop-color:#000000"/>
	</linearGradient>
	<rect x="-120.5" y="-235" class="st0" width="1220" height="762.5"/>
	<rect x="-639" y="-1157" class="st1" width="5460" height="3446"/>
	<g>
		<g>
			<path class="st2" d="M131.66,20.06c13.42,0,24.34,10.92,24.34,24.34V162H37V20.06H131.66 M131.66,9.06H26V173h141V44.4
				C167,24.88,151.18,9.06,131.66,9.06L131.66,9.06z"/>
		</g>
		<polyline class="st3" points="105.53,30.5 105.53,73.76 147.5,73.5 		"/>
		<g class="st1">
			<path class="st4" d="M116.5,43.2v3.45H51.49V43.2H116.5 M121.5,38.2H46.49v13.45h75.01V38.2L121.5,38.2z"/>
		</g>
		<g class="st1">
			<path class="st4" d="M90.11,67.53v82.86H51.49V67.53H90.11 M95.11,62.53H46.49v92.86h48.62V62.53L95.11,62.53z"/>
		</g>
		<g class="st1">
			<path class="st4" d="M143.59,67.53v59.8h-36.54v-59.8H143.59 M148.59,62.53h-46.54v69.8h46.54V62.53L148.59,62.53z"/>
		</g>
		<g class="st1">
			<path class="st4" d="M143.59,143.74v6.65h-36.54v-6.65H143.59 M148.59,138.74h-46.54v16.65h46.54V138.74L148.59,138.74z"/>
		</g>
	</g>
	<g class="st1">
		<g class="st5">
			<path class="st2" d="M103.75,135.5c13.78,0,25,11.21,25,25v100h-98.5v-125H103.75 M103.75,134h-75v128h101.5V160.5
				C130.25,145.86,118.39,134,103.75,134L103.75,134z"/>
		</g>
		<polyline class="st6" points="104,140.75 104,160.75 124,160.75 		"/>
		<rect x="43.5" y="156.75" class="st6" width="54" height="10.5"/>
		<rect x="43.5" y="175.75" class="st7" width="35" height="72.5"/>
		<rect x="83.5" y="175.75" class="st8" width="33.5" height="54.5"/>
	</g>
	<g class="st1">
		<g class="st5">
			<path class="st2" d="M141.75-19.5c13.78,0,25,11.21,25,25v100h-98.5v-125H141.75 M141.75-21h-75v128h101.5V5.5
				C168.25-9.14,156.39-21,141.75-21L141.75-21z"/>
		</g>
		<polyline class="st6" points="142,-14.25 142,5.75 162,5.75 		"/>
		<rect x="81.5" y="1.75" class="st6" width="54" height="10.5"/>
		<rect x="81.5" y="20.75" class="st7" width="35" height="72.5"/>
		<rect x="121.5" y="20.75" class="st8" width="33.5" height="54.5"/>
		<rect x="121.5" y="80.25" class="st6" width="33.5" height="13"/>
	</g>
</g>
<g id="Layer_2" class="st1">
	<circle class="st55" cx="78.73" cy="78.73" r="60.5"/>
	<path class="st4" d="M166.66,172.33L166.66,172.33c-5.34,5.34-13.99,5.34-19.33,0l-31.85-31.85c-5.34-5.34-5.34-13.99,0-19.33l0,0
		c5.34-5.34,13.99-5.34,19.33,0l31.85,31.85C171.99,158.34,171.99,166.99,166.66,172.33z"/>
	<line class="st56" x1="53.92" y1="77.95" x2="103.92" y2="77.95"/>
	<line class="st56" x1="78.92" y1="52.95" x2="78.92" y2="103.48"/>
</g>
<g id="Layer_4">
</g>
</svg>
