<?xml version="1.0" encoding="utf-8"?>
<!-- Generator: Adobe Illustrator 23.0.6, SVG Export Plug-In . SVG Version: 6.00 Build 0)  -->
<svg version="1.1" xmlns="http://www.w3.org/2000/svg" xmlns:xlink="http://www.w3.org/1999/xlink" x="0px" y="0px"
	 viewBox="0 0 692 806" style="enable-background:new 0 0 692 806;" xml:space="preserve">
<style type="text/css">
	.st0{display:none;fill:url(#SVGID_1_);}
	.st1{display:none;}
	.st2{fill:#FFFFFF;}
	.st3{fill:none;stroke:#FFFFFF;stroke-width:7;stroke-linecap:round;stroke-linejoin:round;stroke-miterlimit:10;}
	.st4{display:inline;fill:#FFFFFF;}
	.st5{display:inline;}
	.st6{display:inline;fill:none;stroke:#FFFFFF;stroke-width:0.5;stroke-miterlimit:10;}
	.st7{display:inline;fill:none;stroke:#FFFFFF;stroke-width:0.5229;stroke-miterlimit:10;}
	.st8{display:inline;fill:none;stroke:#FFFFFF;stroke-width:0.5273;stroke-miterlimit:10;}
	.st9{fill:none;stroke:#FFFFFF;stroke-miterlimit:10;}
	.st10{fill:none;stroke:#FFFFFF;stroke-miterlimit:10;stroke-dasharray:1.9843,2.9764;}
	.st11{fill:none;stroke:#FFFFFF;stroke-miterlimit:10;stroke-dasharray:1.9952,2.9927;}
	.st12{display:none;fill:#FFFFFF;}
	.st13{display:none;stroke:#FFFFFF;stroke-width:2.4554;stroke-miterlimit:10;}
	.st14{display:none;fill:none;stroke:#FFFFFF;stroke-miterlimit:10;stroke-dasharray:2,3;}
	.st15{display:inline;fill:none;stroke:#FFFFFF;stroke-linecap:round;stroke-linejoin:round;stroke-miterlimit:10;}
	.st16{fill:none;stroke:#FFFFFF;stroke-linecap:round;stroke-miterlimit:10;}
	
		.st17{fill:none;stroke:#FFFFFF;stroke-linecap:round;stroke-miterlimit:10;stroke-dasharray:10.0481,13.0626,20.0963,30.1444,7.0337,10.0481;}
	
		.st18{fill:none;stroke:#FFFFFF;stroke-linecap:round;stroke-miterlimit:10;stroke-dasharray:26.3673,11.4258,17.5782,17.5782,6.1524,26.3673;}
	.st19{fill:none;stroke:#FFFFFF;stroke-linecap:round;stroke-miterlimit:10;stroke-dasharray:36.738,3.6738;}
	.st20{fill:none;stroke:#FFFFFF;stroke-linecap:round;stroke-miterlimit:10;stroke-dasharray:9.1845,3.6738,36.738,3.6738;}
	.st21{fill:none;stroke:#FFFFFF;stroke-linecap:round;stroke-miterlimit:10;stroke-dasharray:21.0938,14.0626,3.5156,21.0938;}
	
		.st22{fill:none;stroke:#FFFFFF;stroke-linecap:round;stroke-miterlimit:10;stroke-dasharray:14.0626,3.5156,21.0938,14.0626,3.5156,21.0938;}
	.st23{display:inline;fill:none;stroke:#FFFFFF;stroke-miterlimit:10;stroke-dasharray:2,3;}
	.st24{display:none;fill:none;stroke:#FFFFFF;stroke-width:3;stroke-linecap:round;stroke-linejoin:round;stroke-miterlimit:10;}
	.st25{clip-path:url(#SVGID_3_);}
	.st26{clip-path:url(#SVGID_5_);}
	.st27{clip-path:url(#SVGID_7_);}
	
		.st28{clip-path:url(#SVGID_9_);fill:none;stroke:#58595B;stroke-width:0.9;stroke-linecap:round;stroke-linejoin:round;stroke-dasharray:0,3.007;}
	.st29{clip-path:url(#SVGID_11_);}
	
		.st30{clip-path:url(#SVGID_13_);fill:none;stroke:#58595B;stroke-width:0.9;stroke-linecap:round;stroke-linejoin:round;stroke-dasharray:0,3.007;}
	.st31{clip-path:url(#SVGID_15_);}
	
		.st32{clip-path:url(#SVGID_17_);fill:none;stroke:#58595B;stroke-width:0.9;stroke-linecap:round;stroke-linejoin:round;stroke-dasharray:0,3.007;}
	.st33{clip-path:url(#SVGID_19_);}
	
		.st34{clip-path:url(#SVGID_21_);fill:none;stroke:#58595B;stroke-width:0.9;stroke-linecap:round;stroke-linejoin:round;stroke-dasharray:0,3.007;}
	.st35{clip-path:url(#SVGID_23_);}
	
		.st36{clip-path:url(#SVGID_25_);fill:none;stroke:#58595B;stroke-width:0.9;stroke-linecap:round;stroke-linejoin:round;stroke-dasharray:0,3.007;}
	.st37{clip-path:url(#SVGID_27_);}
	
		.st38{clip-path:url(#SVGID_29_);fill:none;stroke:#58595B;stroke-width:0.9;stroke-linecap:round;stroke-linejoin:round;stroke-dasharray:0,3.007;}
	.st39{clip-path:url(#SVGID_31_);}
	
		.st40{clip-path:url(#SVGID_33_);fill:none;stroke:#58595B;stroke-width:0.9;stroke-linecap:round;stroke-linejoin:round;stroke-dasharray:0,3.007;}
	.st41{clip-path:url(#SVGID_35_);}
	
		.st42{clip-path:url(#SVGID_37_);fill:none;stroke:#58595B;stroke-width:0.9;stroke-linecap:round;stroke-linejoin:round;stroke-dasharray:0,3.007;}
	.st43{clip-path:url(#SVGID_39_);}
	
		.st44{clip-path:url(#SVGID_41_);fill:none;stroke:#58595B;stroke-width:0.9;stroke-linecap:round;stroke-linejoin:round;stroke-dasharray:0,3.007;}
	.st45{clip-path:url(#SVGID_43_);}
	
		.st46{clip-path:url(#SVGID_45_);fill:none;stroke:#58595B;stroke-width:0.9;stroke-linecap:round;stroke-linejoin:round;stroke-dasharray:0,3.007;}
	.st47{fill:#58595B;}
	.st48{fill:none;stroke:#58595B;stroke-width:0.6;stroke-linecap:round;stroke-linejoin:round;}
	.st49{fill:none;stroke:#F1F2F2;stroke-width:0.6;stroke-linecap:round;stroke-linejoin:round;}
	.st50{display:inline;fill:none;stroke:#9B9C9D;stroke-linecap:round;stroke-linejoin:round;}
	.st51{display:inline;fill:none;stroke:#9B9C9D;stroke-width:0.5;stroke-miterlimit:10;}
	.st52{display:inline;fill:#9B9C9D;}
	.st53{display:inline;fill:none;stroke:#FFFFFF;stroke-width:6;stroke-linecap:round;stroke-linejoin:round;stroke-miterlimit:10;}
	.st54{fill:none;stroke:#FFFFFF;stroke-width:6;stroke-linecap:round;stroke-linejoin:round;}
	.st55{display:inline;fill:none;stroke:#FFFFFF;stroke-width:16;stroke-miterlimit:10;}
	.st56{display:inline;fill:none;stroke:#FFFFFF;stroke-width:13.8298;stroke-linecap:round;stroke-miterlimit:10;}
	.st57{display:inline;fill:#006699;}
	.st58{fill:#00A1F2;}
	.st59{display:inline;fill:none;stroke:#FCFCFC;stroke-width:8;stroke-miterlimit:10;}
	.st60{display:inline;fill:#FCFCFC;}
	.st61{fill:none;stroke:#FFFFFF;stroke-width:10;stroke-linecap:round;stroke-linejoin:round;stroke-miterlimit:10;}
	.st62{display:none;fill:none;stroke:#FFFFFF;stroke-width:10;stroke-linecap:round;stroke-linejoin:round;stroke-miterlimit:10;}
	.st63{fill:none;stroke:#FFFFFF;stroke-width:13;stroke-linecap:round;stroke-linejoin:round;}
	.st64{display:none;fill:none;stroke:#FFFFFF;stroke-width:13;stroke-linecap:round;stroke-linejoin:round;stroke-miterlimit:10;}
	
		.st65{display:none;fill:none;stroke:#FFFFFF;stroke-width:16.503;stroke-linecap:round;stroke-linejoin:round;stroke-miterlimit:10;}
	.st66{fill:none;stroke:#FFFFFF;stroke-width:16.503;stroke-linecap:round;stroke-linejoin:round;}
</style>
<g id="Layer_1">
	<rect x="-2585" y="-1002" class="st1" width="5460" height="3446"/>
</g>
<g id="Layer_2" class="st1">
</g>
<g id="Layer_4">
	<path class="st61" d="M513.47,399.5h-2.94c-22.11,0-40.03,17.92-40.03,40.03V414c0-22.92-18.58-41.5-41.5-41.5l0,0
		c-22.92,0-41.5,18.58-41.5,41.5c0-22.92-18.58-41.5-41.5-41.5l0,0c-22.92,0-41.5,18.58-41.5,41.5V210.25
		c0-24.99-20.26-45.25-45.25-45.25l0,0c-24.99,0-45.25,20.26-45.25,45.25v371.58l-64.53-111.77
		c-11.46-19.85-36.84-26.65-56.69-15.19v0c-19.85,11.46-26.65,36.84-15.19,56.69l125.72,217.75c5.93,10.28,22.19,30.68,55.94,30.68
		l0,0c24.99,0,63.83,0.5,86.75,0.5l0,0c22.92,0,60.08,0,83,0l0,0c22.92,0,44.39,0,66.5,0l0,0c31,0,58-73,58-150V439.53
		C553.5,417.42,535.58,399.5,513.47,399.5z"/>
	<path class="st62" d="M304.5,414V210.25c0-24.99-20.26-45.25-45.25-45.25l0,0c-24.99,0-45.25,20.26-45.25,45.25v371.58
		l-64.53-111.77c-11.46-19.85-36.84-26.65-56.69-15.19v0c-19.85,11.46-26.65,36.84-15.19,56.69l125.72,217.75
		c5.93,10.28,22.19,30.68,55.94,30.68l0,0c24.99,0,63.83,0.5,86.75,0.5l0,0c22.92,0,60.08,0,83,0l0,0c22.92,0,44.39,0,66.5,0l0,0
		c31,0,58-73,58-150l10-170.97c0-22.11-17.92-40.03-40.03-40.03h-2.94c-22.11,0-40.03,17.92-40.03,40.03"/>
	<g class="st1">
		<g class="st5">
			<line class="st63" x1="194.8" y1="74.5" x2="531.2" y2="74.5"/>
			<g>
				<polygon class="st2" points="208.08,119.88 129.5,74.5 208.08,29.12 				"/>
			</g>
			<g>
				<polygon class="st2" points="517.92,119.88 596.5,74.5 517.92,29.12 				"/>
			</g>
		</g>
	</g>
	<g>
		<g>
			<line class="st63" x1="91.12" y1="390.73" x2="164.88" y2="221.27"/>
			<g>
				<polygon class="st2" points="124.62,394.97 72.5,433.5 65.18,369.1 				"/>
			</g>
			<g>
				<polygon class="st2" points="190.82,242.9 183.5,178.5 131.38,217.03 				"/>
			</g>
		</g>
	</g>
	<path class="st62" d="M349.2,144.3c-24.99,0-45.25,20.26-45.25,45.25V441"/>
	<path class="st62" d="M394.45,393.3V189.55c0-24.99-20.26-45.25-45.25-45.25l0,0"/>
	<path class="st62" d="M440.2,190.3c-24.99,0-45.25,20.26-45.25,45.25L394,441"/>
	<path class="st62" d="M482.45,441.3V237.55c0-24.99-17.26-47.25-42.25-47.25l0,0"/>
</g>
</svg>
