<?xml version="1.0" standalone="no"?><!DOCTYPE svg PUBLIC "-//W3C//DTD SVG 1.1//EN" "http://www.w3.org/Graphics/SVG/1.1/DTD/svg11.dtd"><svg t="1648198598673" class="icon" viewBox="0 0 1024 1024" version="1.1" xmlns="http://www.w3.org/2000/svg" p-id="6757" xmlns:xlink="http://www.w3.org/1999/xlink" width="32" height="32"><defs><style type="text/css">@font-face { font-family: feedback-iconfont; src: url("//at.alicdn.com/t/font_1031158_u69w8yhxdu.woff2?t=1630033759944") format("woff2"), url("//at.alicdn.com/t/font_1031158_u69w8yhxdu.woff?t=1630033759944") format("woff"), url("//at.alicdn.com/t/font_1031158_u69w8yhxdu.ttf?t=1630033759944") format("truetype"); }
</style></defs><path d="M512 1024c-281.6 0-512-230.4-512-512s230.4-512 512-512 512 230.4 512 512-230.4 512-512 512z m22.755556-799.288889c-56.888889 0-99.555556 17.066667-133.688889 48.355556-34.133333 31.288889-48.355556 76.8-48.355556 130.844444h82.488889c0-34.133333 5.688889-59.733333 19.911111-79.644444 14.222222-22.755556 39.822222-31.288889 73.955556-31.288889 28.444444 0 48.355556 8.533333 65.422222 22.755555 14.222222 14.222222 22.755556 36.977778 22.755555 62.577778 0 19.911111-5.688889 36.977778-19.911111 56.888889l-14.222222 14.222222c-48.355556 42.666667-76.8 73.955556-88.177778 93.866667-11.377778 19.911111-14.222222 45.511111-14.222222 73.955555v14.222223h82.488889v-14.222223c0-19.911111 2.844444-36.977778 11.377778-51.2 5.688889-14.222222 17.066667-25.6 31.288889-39.822222 36.977778-31.288889 59.733333-51.2 65.422222-59.733333 17.066667-25.6 28.444444-56.888889 28.444444-93.866667 0-45.511111-14.222222-82.488889-45.511111-110.933333-31.288889-25.6-71.111111-36.977778-119.466666-36.977778z m-14.222223 449.422222c-17.066667 0-28.444444 5.688889-39.822222 14.222223-11.377778 11.377778-17.066667 22.755556-17.066667 39.822222 0 14.222222 5.688889 28.444444 17.066667 39.822222 11.377778 11.377778 22.755556 17.066667 39.822222 17.066667 14.222222 0 28.444444-5.688889 39.822223-14.222223 11.377778-11.377778 17.066667-22.755556 17.066666-39.822222s-5.688889-28.444444-17.066666-39.822222c-8.533333-14.222222-22.755556-17.066667-39.822223-17.066667z" fill="#FFA142" p-id="6758"></path><path d="M392.533333 406.755556m-39.822222 0a39.822222 39.822222 0 1 0 79.644445 0 39.822222 39.822222 0 1 0-79.644445 0Z" fill="#FFFFFF" p-id="6759"></path></svg>